<svg width="34" height="34" viewBox="0 0 34 34" fill="none" xmlns="http://www.w3.org/2000/svg">
<path d="M30.8918 14.2254H29.7507V14.1666H17.0007V19.8333H25.0069C23.8389 23.132 20.7003 25.4999 17.0007 25.4999C12.3065 25.4999 8.50065 21.694 8.50065 16.9999C8.50065 12.3058 12.3065 8.49992 17.0007 8.49992C19.1674 8.49992 21.1387 9.31734 22.6397 10.6525L26.6467 6.6455C24.1166 4.28746 20.7322 2.83325 17.0007 2.83325C9.17711 2.83325 2.83398 9.17638 2.83398 16.9999C2.83398 24.8235 9.17711 31.1666 17.0007 31.1666C24.8242 31.1666 31.1673 24.8235 31.1673 16.9999C31.1673 16.05 31.0696 15.1228 30.8918 14.2254Z" fill="#FFC107"/>
<path d="M4.4668 10.406L9.12125 13.8195C10.3807 10.7014 13.4308 8.49992 17 8.49992C19.1668 8.49992 21.1381 9.31733 22.6391 10.6525L26.6461 6.6455C24.116 4.28746 20.7315 2.83325 17 2.83325C11.5586 2.83325 6.83971 5.90529 4.4668 10.406Z" fill="#FF3D00"/>
<path d="M17.0005 31.1667C20.6598 31.1667 23.9847 29.7663 26.4986 27.489L22.114 23.7787C20.6439 24.8968 18.8475 25.5015 17.0005 25.5C13.3158 25.5 10.1871 23.1505 9.00842 19.8716L4.38867 23.431C6.73326 28.0188 11.4947 31.1667 17.0005 31.1667Z" fill="#4CAF50"/>
<path d="M30.8911 14.2255H29.75V14.1667H17V19.8334H25.0063C24.4476 21.4034 23.4411 22.7752 22.1113 23.7795L22.1135 23.7781L26.498 27.4884C26.1878 27.7703 31.1667 24.0834 31.1667 17.0001C31.1667 16.0502 31.0689 15.123 30.8911 14.2255Z" fill="#1976D2"/>
</svg>
