<svg width="37" height="37" viewBox="0 0 37 37" fill="none" xmlns="http://www.w3.org/2000/svg">
<path d="M18.5004 4.625C27.4421 4.625 34.6895 10.2737 34.6895 17.2435C34.6895 24.2119 27.4421 29.8605 18.502 29.8605C17.6118 29.861 16.7224 29.8043 15.8395 29.691L9.04383 34.1356C8.27145 34.5441 7.99858 34.4994 8.31616 33.4989L9.69133 27.8286C5.25133 25.5778 2.31445 21.6774 2.31445 17.2435C2.31445 10.2752 9.56029 4.625 18.502 4.625H18.5004ZM27.6086 17.0508L29.8748 14.8555C30.0056 14.7197 30.0786 14.5384 30.0783 14.3499C30.0781 14.1614 30.0047 13.9803 29.8736 13.8448C29.7425 13.7093 29.5639 13.63 29.3755 13.6235C29.1871 13.6171 29.0035 13.684 28.8635 13.8103L25.8912 16.687V14.3097C25.8912 14.1168 25.8145 13.9317 25.678 13.7952C25.5416 13.6587 25.3565 13.5821 25.1635 13.5821C24.9705 13.5821 24.7854 13.6587 24.649 13.7952C24.5125 13.9317 24.4358 14.1168 24.4358 14.3097V18.2518C24.4086 18.3643 24.4086 18.4816 24.4358 18.594V20.8125C24.4358 21.0055 24.5125 21.1906 24.649 21.327C24.7854 21.4635 24.9705 21.5402 25.1635 21.5402C25.3565 21.5402 25.5416 21.4635 25.678 21.327C25.8145 21.1906 25.8912 21.0055 25.8912 20.8125V18.7112L26.5495 18.0745L28.751 21.2087C28.8059 21.287 28.8758 21.3536 28.9565 21.4049C29.0372 21.4561 29.1272 21.491 29.2214 21.5074C29.3156 21.5239 29.4122 21.5217 29.5055 21.5008C29.5988 21.48 29.6871 21.441 29.7654 21.386C29.8436 21.331 29.9103 21.2612 29.9615 21.1805C30.0128 21.0997 30.0476 21.0097 30.0641 20.9155C30.0806 20.8213 30.0783 20.7248 30.0575 20.6315C30.0366 20.5381 29.9976 20.4498 29.9427 20.3716L27.6086 17.0493V17.0508ZM23.0483 20.017H20.7975V14.3329C20.7889 14.1459 20.7085 13.9694 20.5732 13.8401C20.4378 13.7108 20.2578 13.6387 20.0706 13.6387C19.8834 13.6387 19.7034 13.7108 19.568 13.8401C19.4327 13.9694 19.3523 14.1459 19.3437 14.3329V20.7447C19.3437 21.1455 19.6675 21.4723 20.0698 21.4723H23.0483C23.2413 21.4723 23.4264 21.3957 23.5629 21.2592C23.6993 21.1227 23.776 20.9377 23.776 20.7447C23.776 20.5517 23.6993 20.3666 23.5629 20.2301C23.4264 20.0937 23.2413 20.017 23.0483 20.017ZM14.0188 18.335L15.0918 15.7019L16.0754 18.3335L14.0188 18.335ZM17.9084 19.0858L17.9115 19.0612C17.9111 18.8778 17.8411 18.7015 17.7157 18.5678L16.1031 14.2512C16.0355 14.0455 15.9068 13.8653 15.734 13.7347C15.5613 13.6041 15.3528 13.5294 15.1365 13.5204C14.9186 13.5195 14.7055 13.5849 14.5257 13.708C14.3458 13.8311 14.2078 14.006 14.1298 14.2095L11.5675 20.4918C11.4946 20.6705 11.4955 20.8709 11.5703 21.0488C11.645 21.2268 11.7874 21.3677 11.9661 21.4407C12.1447 21.5137 12.3451 21.5127 12.523 21.438C12.701 21.3633 12.842 21.2209 12.915 21.0422L13.4268 19.7888H16.618L17.0775 21.0222C17.1088 21.1144 17.1583 21.1993 17.2231 21.272C17.2879 21.3447 17.3666 21.4037 17.4545 21.4454C17.5425 21.4871 17.638 21.5108 17.7353 21.515C17.8325 21.5191 17.9297 21.5037 18.0209 21.4697C18.1121 21.4356 18.1956 21.3836 18.2663 21.3167C18.3371 21.2498 18.3937 21.1694 18.4328 21.0802C18.4719 20.9911 18.4927 20.8949 18.494 20.7976C18.4953 20.7002 18.477 20.6036 18.4403 20.5134L17.9084 19.0858ZM12.787 14.3406C12.787 14.1479 12.7105 13.963 12.5744 13.8266C12.4383 13.6902 12.2536 13.6133 12.0609 13.6129H7.05816C6.86517 13.6129 6.68009 13.6896 6.54362 13.826C6.40716 13.9625 6.33049 14.1476 6.33049 14.3406C6.33049 14.5336 6.40716 14.7187 6.54362 14.8551C6.68009 14.9916 6.86517 15.0683 7.05816 15.0683H8.84649V20.8279C8.84649 21.0209 8.92316 21.206 9.05962 21.3425C9.19609 21.4789 9.38117 21.5556 9.57416 21.5556C9.76715 21.5556 9.95224 21.4789 10.0887 21.3425C10.2252 21.206 10.3018 21.0209 10.3018 20.8279V15.0683H12.0593C12.2523 15.0683 12.4374 14.9916 12.5739 14.8551C12.7103 14.7187 12.787 14.5336 12.787 14.3406Z" fill="black"/>
</svg>
