<svg width="16" height="16" viewBox="0 0 16 16" fill="none" xmlns="http://www.w3.org/2000/svg">
<path opacity="0.2" d="M16 1.45455V14.5455C16 14.9312 15.8703 15.3012 15.6395 15.574C15.4087 15.8468 15.0957 16 14.7692 16H1.23077C0.904349 16 0.591298 15.8468 0.360484 15.574C0.12967 15.3012 0 14.9312 0 14.5455V1.45455C0 1.06878 0.12967 0.698807 0.360484 0.426026C0.591298 0.153246 0.904349 0 1.23077 0H14.7692C15.0957 0 15.4087 0.153246 15.6395 0.426026C15.8703 0.698807 16 1.06878 16 1.45455Z" fill="#95BF76"/>
<path d="M13.9736 4.15091L6.58897 12.8782C6.53182 12.9458 6.46395 12.9994 6.38924 13.036C6.31454 13.0726 6.23446 13.0915 6.15359 13.0915C6.07272 13.0915 5.99264 13.0726 5.91793 13.036C5.84323 12.9994 5.77536 12.9458 5.7182 12.8782L2.64128 9.24182C2.52581 9.10536 2.46094 8.92027 2.46094 8.72728C2.46094 8.53429 2.52581 8.3492 2.64128 8.21273C2.75675 8.07627 2.91336 7.9996 3.07666 7.9996C3.23997 7.9996 3.39658 8.07627 3.51205 8.21273L6.15359 11.3355L13.1028 3.12182C13.2183 2.98536 13.3749 2.90869 13.5382 2.90869C13.7015 2.90869 13.8581 2.98536 13.9736 3.12182C14.0891 3.25829 14.1539 3.44338 14.1539 3.63637C14.1539 3.82936 14.0891 4.01445 13.9736 4.15091Z" fill="#95BF76"/>
</svg>
