<svg width="20" height="21" viewBox="0 0 20 21" fill="none" xmlns="http://www.w3.org/2000/svg">
<path d="M10 7.34463C10.1978 7.34463 10.3911 7.40328 10.5556 7.51316C10.72 7.62304 10.8482 7.77921 10.9239 7.96194C10.9996 8.14466 11.0194 8.34572 10.9808 8.5397C10.9422 8.73368 10.847 8.91186 10.7071 9.05171C10.5673 9.19156 10.3891 9.2868 10.1951 9.32539C10.0011 9.36397 9.80004 9.34417 9.61732 9.26848C9.43459 9.19279 9.27841 9.06462 9.16853 8.90018C9.05865 8.73573 9 8.54239 9 8.34461C9 8.0794 9.10536 7.82505 9.29289 7.63752C9.48043 7.44998 9.73478 7.34463 10 7.34463ZM3 0.344727H17C17.7956 0.344727 18.5587 0.660793 19.1213 1.22339C19.6839 1.786 20 2.54905 20 3.34468V13.3445C20 14.1402 19.6839 14.9032 19.1213 15.4658C18.5587 16.0284 17.7956 16.3445 17 16.3445H5.41L1.71 20.0545C1.61656 20.1471 1.50574 20.2205 1.38391 20.2702C1.26207 20.32 1.13161 20.3452 1 20.3444C0.868824 20.3478 0.73868 20.3204 0.620001 20.2644C0.437382 20.1894 0.281054 20.062 0.170721 19.8983C0.0603886 19.7346 0.000986099 19.5419 0 19.3445V3.34468C0 2.54905 0.316071 1.786 0.878679 1.22339C1.44129 0.660793 2.20435 0.344727 3 0.344727ZM2 16.9345L4.29 14.6345C4.38344 14.5418 4.49426 14.4685 4.61609 14.4188C4.73793 14.369 4.86839 14.3438 5 14.3445H17C17.2652 14.3445 17.5196 14.2392 17.7071 14.0516C17.8946 13.8641 18 13.6098 18 13.3445V3.34468C18 3.07947 17.8946 2.82512 17.7071 2.63759C17.5196 2.45005 17.2652 2.3447 17 2.3447H3C2.73478 2.3447 2.48043 2.45005 2.29289 2.63759C2.10536 2.82512 2 3.07947 2 3.34468V16.9345ZM14 7.34463C14.1978 7.34463 14.3911 7.40328 14.5556 7.51316C14.72 7.62304 14.8482 7.77921 14.9239 7.96194C14.9996 8.14466 15.0194 8.34572 14.9808 8.5397C14.9422 8.73368 14.847 8.91186 14.7071 9.05171C14.5673 9.19156 14.3891 9.2868 14.1951 9.32539C14.0011 9.36397 13.8 9.34417 13.6173 9.26848C13.4346 9.19279 13.2784 9.06462 13.1685 8.90018C13.0586 8.73573 13 8.54239 13 8.34461C13 8.0794 13.1054 7.82505 13.2929 7.63752C13.4804 7.44998 13.7348 7.34463 14 7.34463ZM6 7.34463C6.19778 7.34463 6.39112 7.40328 6.55557 7.51316C6.72002 7.62304 6.84819 7.77921 6.92388 7.96194C6.99957 8.14466 7.01937 8.34572 6.98079 8.5397C6.9422 8.73368 6.84696 8.91186 6.70711 9.05171C6.56725 9.19156 6.38907 9.2868 6.19509 9.32539C6.00111 9.36397 5.80004 9.34417 5.61732 9.26848C5.43459 9.19279 5.27841 9.06462 5.16853 8.90018C5.05865 8.73573 5 8.54239 5 8.34461C5 8.0794 5.10536 7.82505 5.29289 7.63752C5.48043 7.44998 5.73478 7.34463 6 7.34463Z" fill="#999999"/>
</svg>
