<svg width="56" height="65" viewBox="0 0 56 65" fill="none" xmlns="http://www.w3.org/2000/svg">
<path d="M18.9091 32.5H30.2727M18.9091 41.5769H30.2727M18.9091 50.6538H30.2727M39.3636 52.9231H46.1818C47.9901 52.9231 49.7243 52.2058 51.003 50.9291C52.2817 49.6525 53 47.9209 53 46.1154V14.6729C53 11.2388 50.4394 8.32513 47.0121 8.04072C45.8788 7.94687 44.7443 7.86618 43.6091 7.79867M43.6091 7.79867C43.8102 8.44944 43.9093 9.12665 43.9091 9.80769C43.9091 10.4095 43.6696 10.9867 43.2434 11.4123C42.8172 11.8378 42.2391 12.0769 41.6364 12.0769H28C26.7455 12.0769 25.7273 11.0603 25.7273 9.80769C25.7273 9.10877 25.8333 8.43405 26.0303 7.79867M43.6091 7.79867C43.1791 6.40873 42.3115 5.19287 41.139 4.3293C39.9666 3.46573 38.5479 2.99987 37.0909 3H32.5455C31.0886 3.00034 29.6701 3.46639 28.4978 4.32989C27.3254 5.19339 26.4607 6.40899 26.0303 7.79867M26.0303 7.79867C24.8909 7.86826 23.7576 7.94995 22.6242 8.04072C19.197 8.32513 16.6364 11.2388 16.6364 14.6729V21.1538M16.6364 21.1538H6.40909C4.52727 21.1538 3 22.6788 3 24.5577V58.5962C3 60.4751 4.52727 62 6.40909 62H35.9545C37.8364 62 39.3636 60.4751 39.3636 58.5962V24.5577C39.3636 22.6788 37.8364 21.1538 35.9545 21.1538H16.6364ZM12.0909 32.5H12.1152V32.5242H12.0909V32.5ZM12.0909 41.5769H12.1152V41.6011H12.0909V41.5769ZM12.0909 50.6538H12.1152V50.678H12.0909V50.6538Z" stroke="#333333" stroke-width="5" stroke-linecap="round" stroke-linejoin="round"/>
</svg>
