<svg width="120" height="120" viewBox="0 0 120 120" fill="none" xmlns="http://www.w3.org/2000/svg">
<path d="M34.2563 102.413C39.7557 109.78 49.1808 109.098 57.2559 112.525C61.0286 109.709 53.4179 99.5826 47.9185 92.2149C42.4191 84.8472 34.9025 81.1574 31.1298 83.9734C27.3571 86.7894 28.7569 95.045 34.2563 102.413Z" fill="#FFDDCD"/>
<path d="M110.331 57.4986C113.249 81.3728 90.0195 100.934 58.4188 99.0923C26.818 97.251 -1.30182 74.2825 4.05015 46.8523C13.9441 15.4248 61.7469 -8.12968 87.5056 24.5631C97.1979 38.9719 103.232 33.7963 110.331 57.4986Z" fill="#FFE0DD"/>
<path d="M113.897 25.1167C114.895 31.6155 109.584 37.5883 106.585 40.1218C97.8893 47.4682 99.1745 33.0064 86.1944 28.1747C76.4812 23.2809 89.1568 13.2968 100.085 11.6201C111.013 9.94326 112.742 17.5892 113.897 25.1167Z" fill="#FFE0DD"/>
<path d="M12.2667 10.8699C8.71577 17.2964 10.7667 23.3699 13.8109 28.8429C19.1459 38.4343 22.0356 25.6274 35.3887 25.5765C45.8065 24.3819 39.5903 10.53 30.2605 5.37494C20.9306 0.21989 15.8176 4.44328 12.2667 10.8699Z" fill="#FFE0DD"/>
<path d="M16.2598 16.3755C15.6072 20.0308 16.1373 25.0447 21.6392 25.03C26.0201 25.0184 24.4154 22.0365 29.4829 19.6008C33.3113 17.1589 28.3629 12.1067 24.2597 11.3742C20.1564 10.6417 16.9123 12.7201 16.2598 16.3755Z" fill="#FFF4E6"/>
<path d="M106.767 26.3694C106.826 29.8562 105.408 35.6971 99.7674 34.8694C95.276 34.2105 97.1909 30.5754 92.4006 27.5666C86.7676 24.0284 95.9363 19.4432 100.267 19.3709C104.598 19.2986 106.709 22.8827 106.767 26.3694Z" fill="#FFF4E6"/>
<path d="M25.146 72.9971C24.8759 77.6334 29.3591 81.6658 24.6569 81.3918C19.9547 81.1179 16.3618 77.1373 16.632 72.501C16.9021 67.8647 20.933 64.3283 25.6352 64.6023C30.3374 64.8763 25.4162 68.3608 25.146 72.9971Z" fill="#FFDDCD"/>
<path d="M83.8427 75.0885C83.6152 78.9928 79.5123 81.9295 83.4308 82.1578C87.3492 82.3861 90.7102 79.4062 90.9377 75.5019C91.1652 71.5976 88.173 68.2475 84.2546 68.0192C80.3361 67.7909 84.0701 71.1842 83.8427 75.0885Z" fill="#FFDDCD"/>
<path d="M84.4968 79.5594C82.3004 100.876 64.1215 114.535 52.8004 113.876C40.6084 113.165 24.537 92.3763 24.5365 73.8491C24.5361 55.322 40.2791 35.31 56.8722 36.2768C73.4653 37.2436 86.6763 58.406 84.4968 79.5594Z" fill="#FFDDCD"/>
<path d="M52.3178 35.2526C49.2797 33.2581 50.0869 24.2054 46.4675 23.7434C42.8481 23.2814 40.723 23.7108 37.1254 24.8583C33.5277 26.0057 32.8305 26.4869 29.8539 29.0528C26.8773 31.6186 26.2811 31.9191 24.4214 35.4758C22.5618 39.0325 21.2788 39.7443 20.8459 43.6994C20.4131 47.6544 19.2493 52.1601 19.7835 55.4742C20.8495 59.1688 20.3865 65.5262 21.8856 67.296C24.2729 70.1145 23.3413 73.235 24.6223 77.4202L27.3755 64.8135L29.6195 57.8747L33.0779 50.958L36.377 45.8005L40.8133 41.5299L52.3178 35.2526Z" fill="#3A3027"/>
<path d="M58.4944 39.679C57.0952 40.578 43.2516 36.0616 42.4443 37.5316C40.768 39.4796 49.1201 41.3587 49.5745 42.6609C50.029 43.9632 51.1586 46.6566 51.8176 48.4796C52.4766 50.3025 52.5828 50.965 53.8719 52.5112C55.161 54.0573 55.1977 54.4187 56.9022 55.4305C58.6066 56.4422 60.1781 58.0357 62.014 58.3444C63.8498 58.6532 64.794 59.0072 64.794 59.0072C65.1912 59.0138 65.1368 58.624 66.3954 59.0818L65.0031 57.806L64.5596 54.9843L63.6319 51.5513L62.0881 47.8811L61.2388 45.0408L58.4944 39.679Z" fill="#3A3027"/>
<path d="M51.0002 35.2896C49.2213 36.237 34.804 31.0514 33.5518 32.6307C31.214 34.7112 40.1128 36.9216 40.3122 38.3447C40.5116 39.7677 41.1362 42.7146 41.4409 44.707C41.7455 46.6995 41.707 47.4209 42.7824 49.1256C43.8578 50.8304 43.8131 51.2235 45.48 52.3567C47.147 53.4898 48.527 55.2517 50.5078 55.6244C52.4886 55.9971 53.461 56.4006 53.461 56.4006C53.9039 56.416 53.9355 55.9916 55.235 56.5143L53.9801 55.1009L52.2914 52.7535L51.2209 49.1872L51.185 45.2077L51.1909 42.0922L51.0002 35.2896Z" fill="#3A3027"/>
<path d="M29.3497 39.2508C30.9104 40.2329 45.9004 35.3046 46.8328 36.9101C48.7316 39.0377 39.6596 41.0876 39.2062 42.5096C38.7529 43.9316 37.6079 46.8726 36.9483 48.8632C36.2888 50.8537 36.1949 51.5772 34.8369 53.2653C33.4789 54.9534 33.4508 55.3481 31.6205 56.4525C30.4079 57.627 29.4212 59.3429 28.9279 60.2008C28.4346 61.0587 27.8093 65.0609 27.8093 65.0609C27.3163 65.9141 26.7268 69.0375 25.757 69.8254L24.9206 61.3541L24.9123 56.724L26.6046 53.1708L27.364 49.1843L27.9255 46.0628L29.3497 39.2508Z" fill="#3A3027"/>
<path d="M74.8064 32.5559C72.2843 34.8947 47.9129 33.5754 46.4165 36.6598C43.3574 41.05 58.0977 40.3036 58.8478 42.4516C59.598 44.5996 61.8712 49.252 62.5763 51.9427C62.9392 53.7476 63.0612 57.0276 65.2819 59.2032C67.5026 61.3789 68.3175 61.0854 71.2984 62.0789C74.2794 63.0723 76.9991 65.1932 80.2436 64.839C83.4882 64.4848 85.1484 64.6586 85.1484 64.6586C85.853 64.4722 85.7733 63.7884 87.987 63.9944L85.5715 62.3633L82.1851 59.4665L79.403 54.3547L78.13 48.0997L77.187 43.1866L74.8064 32.5559Z" fill="#3A3027"/>
<path d="M42.6651 36.6872C46.1484 33.1005 43.8469 22.5104 48.473 20.614C53.099 18.7175 55.1861 18.5683 60.1843 18.678C65.1825 18.7877 66.2144 19.1311 70.752 21.2287C75.2897 23.3262 79.6281 24.5714 82.9492 28.3074C86.2704 32.0434 86.9896 36.1004 89.4094 40.2307C91.2923 43.4445 91.3882 48.6501 92.6369 53.2791C94.0949 58.6843 90.4724 66.8165 88.0467 71.1883C85.621 75.56 86.2803 79.3439 84.4222 80.7155L84.0534 71.8274L83.4529 66.9157L78.0254 56.4788L71.7739 49.1555L66.169 43.958L59.2955 40.277L42.6651 36.6872Z" fill="#3A3027"/>
<path d="M83.9223 63.8755C82.9008 63.7129 79.5219 63.3098 75.5146 63.0763C70.8908 62.8069 67.1559 63.2079 63.5237 63.6149C59.4385 64.7171 57.5042 64.2951 55.1409 64.1574C52.7777 64.0197 50.3964 64.1903 46.8779 62.645C43.3176 61.8189 39.6545 60.9869 35.0306 60.7175C31.0233 60.484 27.6206 60.4919 26.5871 60.5348C24.4113 60.7173 24.4113 60.7173 24.2796 62.9779C24.0821 66.3687 24.4571 67.0091 24.5479 67.2206C24.7355 67.5408 25.334 67.885 25.5216 68.2052C25.8059 68.6342 25.8308 69.976 25.8916 70.7012C26.6747 76.7266 28.1989 78.8774 37.1383 79.3983C45.5639 79.8892 49.4393 79.2902 51.8149 71.6961C51.9416 71.2911 52.2608 69.3508 52.3935 68.843C52.4055 68.6375 52.623 68.444 53.04 68.3652C53.6625 68.2984 54.1762 68.3283 54.69 68.3583C55.2037 68.3882 55.7175 68.4181 56.328 68.5568C56.733 68.6835 56.9265 68.901 56.9146 69.1065C56.9934 69.5235 57.0851 71.4877 57.1579 72.0075C58.5842 79.3797 62.4151 80.8711 70.8407 81.362C79.8828 81.8888 81.5438 79.9236 83.0213 74.0299C83.166 73.3166 83.3466 71.9869 83.6788 71.5938C83.9022 71.2975 84.5367 71.0252 84.7602 70.7289C84.9776 70.5354 85.3218 69.9368 85.5194 66.5461C86.0621 64.3095 86.0621 64.3095 83.9223 63.8755ZM50.5081 69.3518C50.3754 69.8596 50.2427 70.3673 49.9953 71.0746C48.6196 75.2216 45.9919 77.8522 37.4635 77.3552C29.2434 76.8763 28.626 75.0876 28.0793 70.3132C27.8729 68.5484 27.3701 66.5602 28.1911 64.8554C28.656 63.9546 29.3504 62.6547 31.8164 62.7984C33.5632 62.9002 42.1883 63.5058 47.4655 64.9474C48.8741 65.545 51.4129 66.2084 50.5081 69.3518ZM81.2985 73.5171C80.2011 78.1958 79.3801 79.9007 71.16 79.4217C62.6316 78.9248 60.3272 76.0068 59.4424 71.7282C59.2788 70.9969 59.212 70.3744 59.1332 69.9574C58.6963 66.839 61.1982 66.3662 62.7575 66.1477C68.1664 65.3288 76.8035 65.7289 78.5503 65.8307C80.9135 65.9684 81.555 67.3461 81.9121 68.2948C82.4448 69.7692 81.7145 71.6856 81.2985 73.5171Z" fill="#3E4347"/>
<path d="M53.1919 85.7004C52.6297 88.1214 52.4382 90.0643 51.6206 89.2468C51.0934 89.5885 51.5549 87.8718 52.1171 85.4508C52.6793 83.0298 52.9986 82.0616 53.538 82.3114C54.0772 82.5613 53.7541 83.2794 53.1919 85.7004Z" fill="#3A3027"/>
<path d="M39.1042 59.8585C33.2565 59.5662 28.684 59.6988 30.1923 58.3732C30.6774 57.9512 32.1172 56.9701 37.9649 57.2624C43.8125 57.5547 47.4125 58.8299 47.0856 59.6443C46.7586 60.4586 44.9519 60.1508 39.1042 59.8585Z" fill="#3A3027"/>
<path d="M71.692 62.7196C65.8444 62.4273 61.2719 62.5599 62.7801 61.2343C63.2652 60.8124 65.5892 59.8848 71.4369 60.1771C77.2845 60.4694 80.0004 61.6911 79.6735 62.5054C79.3465 63.3197 77.5397 63.0119 71.692 62.7196Z" fill="#3A3027"/>
<path d="M53.2403 90.9819C52.0823 90.0849 51.133 89.5362 51.5528 88.8294C51.7788 88.5377 52.9007 89.0282 54.0588 89.9252C55.2168 90.8222 56.1002 91.8846 55.7464 92.0776C55.0575 92.4533 54.3984 91.8788 53.2403 90.9819Z" fill="#3A3027"/>
<path d="M46.859 71.1604C45.8724 72.8762 43.224 69.6186 38.0996 69.32C32.9753 69.0214 30.9016 71.1173 30.1209 69.2984C30.1636 68.5664 33.104 66.8123 38.2283 67.1108C43.3527 67.4094 46.9016 70.4283 46.859 71.1604Z" fill="#3A3027"/>
<path d="M62.8512 71.4826C63.4908 73.5158 66.9344 70.6362 72.2788 71.4311C77.6232 72.2259 79.2991 74.8979 80.5028 73.1387C80.6196 72.3533 77.9757 69.8557 72.6313 69.0608C67.2869 68.266 62.968 70.6971 62.8512 71.4826Z" fill="#3A3027"/>
<path d="M92.8011 66.299C92.4899 71.6407 95.8625 37.2176 56.6058 33.1569C10.5892 32.2491 18.6272 68.667 18.9384 63.3253C13.3962 51.9192 19.1485 16.7879 59.572 12.0499C105.906 26.7195 93.1124 60.9573 92.8011 66.299Z" fill="#FFE0DD"/>
<circle cx="47.7808" cy="16.3334" r="1.77032" transform="rotate(-3.1452 47.7808 16.3334)" fill="#7F7163"/>
<circle cx="64.5738" cy="15.4149" r="1.77032" transform="rotate(-3.1452 64.5738 15.4149)" fill="#7F7163"/>
<path d="M56.1274 22.2869C56.9221 21.4971 57.5449 23.7895 60.2987 24.717C63.0525 25.6444 63.0268 22.2159 63.8845 22.7092C63.752 23.1026 62.9902 26.7133 60.2364 25.7858C57.4826 24.8583 55.9949 22.6803 56.1274 22.2869Z" fill="#7F7163"/>
<path d="M48.8374 22.2764C50.1887 21.9118 49.2431 25.1222 52.0273 24.2905C54.8116 23.4588 55.5098 21.9428 56.2767 22.7596C56.3956 23.1573 55.1701 24.6591 52.3859 25.4908C49.6017 26.3225 48.9563 22.6741 48.8374 22.2764Z" fill="#7F7163"/>
<path d="M56.2751 20.6763C57.0237 20.6207 57.8512 20.8674 57.7111 21.6599C57.5996 22.2909 57.3954 21.9198 56.7811 22.6243C56.1964 23.1502 54.8092 22.6668 54.7648 22.068C54.7203 21.4691 55.5265 20.7319 56.2751 20.6763Z" fill="#7F7163"/>
<g filter="url(#filter0_f_241_2)">
<path d="M54.0429 99.2616C53.8645 99.926 51.9692 99.9948 49.8096 99.4151C47.65 98.8354 46.0439 97.8267 46.2223 97.1622C47.7285 96.7033 50.318 97.2935 51.8827 97.471C52.9346 97.9237 54.2212 98.5971 54.0429 99.2616Z" fill="#FD978E"/>
</g>
<g filter="url(#filter1_f_241_2)">
<path d="M62.1681 97.9182C62.2346 98.603 60.3024 98.7923 58.0768 99.0084C55.8512 99.2245 53.6128 99.3297 53.5463 98.6449C53.4798 97.9601 55.4527 97.2689 56.4854 97.2108C57.5182 97.1526 62.1016 97.2334 62.1681 97.9182Z" fill="#FD978E"/>
</g>
<g filter="url(#filter2_f_241_2)">
<path d="M45.7628 98.2095C45.7943 98.6212 48.2839 101.979 50.1338 102.824C51.1875 103.306 52.3477 103.902 54.4764 103.793C56.6051 103.685 57.3354 103.098 58.8387 102.474C59.841 102.057 61.6988 99.3569 62.2231 98.9168L54.3582 101.786L45.7628 98.2095Z" fill="#FD978E"/>
</g>
<path d="M47.455 98.9955C48.0998 97.2607 50.739 98.9971 54.7809 98.8738C58.8229 98.7506 59.9751 97.7562 60.7244 99.4485C60.746 100.158 58.5716 102.087 54.5297 102.21C50.4877 102.333 47.4767 99.7053 47.455 98.9955Z" fill="white"/>
<path d="M45.2011 97.384C46.1682 96.307 48.8095 98.4347 53.9845 98.4689C59.1596 98.5032 61.0851 97.0056 63.2035 97.9495C63.1991 98.6184 59.727 99.457 54.5519 99.4228C49.3769 99.3886 45.1967 98.0528 45.2011 97.384Z" fill="#3A3027"/>
<path d="M45.362 97.9646C46.164 95.1005 47.4917 101.875 54.3685 101.694C60.8103 101.524 61.3108 96.0584 62.2857 98.8683C61.2609 100.023 59.5584 102.202 54.4063 102.359C49.2543 102.516 45.8038 98.8418 45.362 97.9646Z" fill="#3A3027"/>
<defs>
<filter id="filter0_f_241_2" x="45.209" y="95.9912" width="9.84961" height="4.81738" filterUnits="userSpaceOnUse" color-interpolation-filters="sRGB">
<feFlood flood-opacity="0" result="BackgroundImageFix"/>
<feBlend mode="normal" in="SourceGraphic" in2="BackgroundImageFix" result="shape"/>
<feGaussianBlur stdDeviation="0.5" result="effect1_foregroundBlur_241_2"/>
</filter>
<filter id="filter1_f_241_2" x="52.5449" y="96.1953" width="10.625" height="3.97632" filterUnits="userSpaceOnUse" color-interpolation-filters="sRGB">
<feFlood flood-opacity="0" result="BackgroundImageFix"/>
<feBlend mode="normal" in="SourceGraphic" in2="BackgroundImageFix" result="shape"/>
<feGaussianBlur stdDeviation="0.5" result="effect1_foregroundBlur_241_2"/>
</filter>
<filter id="filter2_f_241_2" x="44.7637" y="97.2095" width="18.459" height="7.59668" filterUnits="userSpaceOnUse" color-interpolation-filters="sRGB">
<feFlood flood-opacity="0" result="BackgroundImageFix"/>
<feBlend mode="normal" in="SourceGraphic" in2="BackgroundImageFix" result="shape"/>
<feGaussianBlur stdDeviation="0.5" result="effect1_foregroundBlur_241_2"/>
</filter>
</defs>
</svg>
