<svg width="109" height="116" viewBox="0 0 109 116" fill="none" xmlns="http://www.w3.org/2000/svg">
<path d="M88.9536 72.6447C86.7483 92.5681 76.7895 107.815 66.7098 106.699C56.63 105.583 64.3839 95.6125 66.5892 75.6891C68.7945 55.7658 64.6161 33.4344 74.6959 34.5501C84.7756 35.6658 91.1589 52.7213 88.9536 72.6447Z" fill="#302722"/>
<path d="M15.3391 62.9648C13.1338 82.8882 17.1216 99.822 29.878 101.234C42.6345 102.646 35.5043 91.0278 37.7096 71.1044C39.9149 51.1811 50.6206 30.4972 37.8641 29.0852C25.1077 27.6732 17.5444 43.0415 15.3391 62.9648Z" fill="#302722"/>
<path d="M23.5044 72.0824C23.0172 76.4841 25.9704 80.4229 22.6222 80.0523C19.2741 79.6817 16.9548 75.813 17.442 71.4113C17.9293 67.0097 21.0384 63.7418 24.3866 64.1124C27.7348 64.4831 23.9916 67.6807 23.5044 72.0824Z" fill="#FFDDCD"/>
<path d="M75.8297 77.621C75.4194 81.3276 71.3666 83.9207 75.0868 84.3325C78.807 84.7443 82.1554 82.0732 82.5657 78.3666C82.976 74.6599 80.2928 71.3212 76.5726 70.9094C72.8524 70.4976 76.24 73.9143 75.8297 77.621Z" fill="#FFDDCD"/>
<path d="M76.0246 86.2257C68.8501 108.171 51.0745 109.86 46.9044 109.86C39.7389 109.86 24.537 98.887 23.2703 77.3633C22.0037 55.8396 38.7476 32.1506 54.5009 33.8943C70.2543 35.638 82.381 66.7826 76.0246 86.2257Z" fill="#FFDDCD"/>
<path d="M52.0369 34.8116C49.2101 32.7033 50.6125 23.6466 47.1148 23.056C43.6171 22.4653 41.5159 22.8217 37.93 23.847C34.3441 24.8723 33.6317 25.3307 30.5549 27.8012C27.4782 30.2717 26.8764 30.5524 24.8215 34.0565C22.7665 37.5607 21.4671 38.23 20.7763 42.184C20.0854 46.138 18.6444 50.6188 18.9401 53.9636C19.7284 57.7087 18.8448 64.0726 20.1861 65.9013C22.3223 68.8137 21.2019 71.9126 22.1664 76.1577L25.7078 63.6026L28.3675 56.7178L32.2097 49.8978L35.7769 44.8377L40.3928 40.7075L52.0369 34.8116Z" fill="#302722"/>
<path d="M44.8926 40.4213C46.9965 37.3304 47.3695 34.7327 58.514 30.2717C56.1597 30.1361 39.0262 32.4829 38.2144 33.9459C37.4025 35.409 35.5416 38.3508 34.4163 40.4213C33.2909 42.4918 33.091 43.3839 32.4898 45.8603C32.137 47.3138 31.6432 49.2797 31.6432 51.1242C31.3433 53.0887 31.1665 55.603 30.1656 57.8321C29.1647 60.0611 27.2005 60.9433 27.2005 60.9433C25.4493 62.2892 20.9917 64.883 23.9634 64.5174L27.2005 63.7762L30.1656 62.2902L32.4898 60.4249L34.4163 57.3766L36.1974 53.2161L38.6994 49.576L40.6732 46.7556L42.9099 43.646L44.8926 40.4213Z" fill="#302722"/>
<path d="M33.1846 39.999C34.5952 36.4931 39.9437 32.4057 43.7444 31.9804C45.1834 33.8804 36.4889 43.8209 35.7176 45.3259C34.9463 46.8309 27.1759 48.3396 26.0711 50.4497C24.9663 52.5598 23.2462 54.1683 22.037 56.4424C21.3702 57.6963 19.8824 59.5988 18.5076 61.1996C17.1003 62.8382 16.5022 63.6357 15.1942 65.7306C13.8863 67.8254 13.1433 71.3559 13.1433 71.3559C12.9991 73.5835 14.5576 79.1591 13.192 76.4586L11.9922 73.3238L11.5708 69.9982L12.9178 66.4126L14.7522 62.9812L17.4567 59.1844L20.2064 55.9828L22.8657 51.591L26.8574 46.3262L33.1846 39.999Z" fill="#302722"/>
<path d="M89.9007 68.9522C91.5542 65.6969 88.6888 51.4878 86.6773 48.4184C84.4382 48.559 85.147 68.9331 84.5382 70.4527C83.9295 71.9723 87.5838 78.6514 86.7445 80.7992C85.9052 82.947 85.8006 85.2311 84.9073 87.5594C84.4148 88.8432 83.9578 91.142 83.6481 93.1669C83.3312 95.2395 83.124 96.1843 82.4195 98.4721C81.7149 100.76 79.6369 103.539 79.6369 103.539C78.1279 105.053 73.1811 107.429 75.9494 106.728L78.9278 105.631L81.5686 103.839L83.318 100.581L84.6598 97.0601L85.7332 92.6675L86.3525 88.6178L87.88 83.8824L89.2213 77.6135L89.9007 68.9522Z" fill="#302722"/>
<path d="M15.337 60.8412C14.2797 57.2131 15.9592 50.6945 18.6847 48.0115C20.9902 48.6163 20.2966 61.8044 20.6201 63.4643C20.9437 65.1242 15.7665 71.1118 16.2017 73.4536C16.637 75.7953 16.2784 78.1228 16.7329 80.658C16.9835 82.0559 16.9893 84.4711 16.8976 86.5792C16.8036 88.7372 16.8261 89.7338 17.0922 92.1891C17.3583 94.6443 18.9557 97.8793 18.9557 97.8793C20.2188 99.7198 22.5826 101.556 19.8401 100.276L19.2667 100.138L16.8804 97.7834L15.7238 94.1319L15.0458 90.3005L14.8261 85.6442L15.0097 81.4279L14.3867 76.3316L14.2719 69.7256L15.337 60.8412Z" fill="#302722"/>
<path d="M87.7505 66.5994C89.657 63.0269 89.0254 55.9375 86.4596 52.6384C83.7283 52.8348 81.9405 66.6709 81.2498 68.3354C80.5591 69.9998 85.2591 77.1929 84.3086 79.545C83.3582 81.8972 83.3104 84.3833 82.3004 86.9329C81.7436 88.3387 81.2656 90.8477 80.9582 93.0558C80.6435 95.3161 80.4234 96.3477 79.6426 98.8495C78.8618 101.351 76.4198 104.414 76.4198 104.414C74.6288 106.09 71.591 107.555 74.9494 106.74L75.6265 106.703L78.7909 104.703L80.8146 101.125L82.3309 97.2703L83.4887 92.4723L84.1035 88.0559L85.8043 82.8762L87.2237 76.0323L87.7505 66.5994Z" fill="#302722"/>
<path d="M14.6456 65.6687L15.9418 66.6189L16.371 68.5598C16.371 68.5598 15.4174 71.7377 16.1287 74.0109C16.84 76.284 16.7615 78.6377 17.515 81.1006C17.9305 82.4586 18.2242 84.8559 18.3844 86.96C18.5484 89.1137 18.6897 90.1005 19.2466 92.5065C19.8035 94.9126 21.7752 97.934 21.7752 97.934C23.2487 99.6108 25.8145 101.152 22.9391 100.209L22.3532 100.139L19.7032 98.0863L18.1196 94.5987L16.9896 90.8754L16.2163 86.2785L15.8959 82.0704L14.6697 77.0847L13.7682 70.5396L14.6456 65.6687Z" fill="#302722"/>
<path d="M81.5609 62.7501L80.0676 63.6348L79.4974 65.5522C79.4974 65.5522 80.416 68.7742 79.515 71.0095C78.6141 73.2448 78.5925 75.5998 77.6356 78.0226C77.108 79.3585 76.6681 81.7385 76.3912 83.8324C76.1078 85.9756 75.904 86.9544 75.1696 89.3301C74.4351 91.7058 72.0903 94.6258 72.0903 94.6258C70.3648 96.2274 67.4245 97.6391 70.6833 96.84L71.3415 96.8L74.3997 94.8811L76.3324 91.4761L77.7688 87.8132L78.847 83.2597L79.4008 79.072L81.0034 74.1527L82.3155 67.6595L81.5609 62.7501Z" fill="#302722"/>
<path d="M23.6366 60.8491L24.9455 62.0985L25.0459 64.1041C25.0459 64.1041 23.2887 66.9797 23.6482 69.3799C24.0078 71.7801 23.4346 74.0646 23.8042 76.661C24.008 78.0926 23.8577 80.5115 23.6125 82.6104C23.3616 84.7589 23.3233 85.7596 23.4765 88.2519C23.6297 90.7442 25.298 94.1873 25.298 94.1873C26.6639 96.1917 29.3246 98.3324 26.1822 96.7006L25.5168 96.4884L22.8633 93.8259L21.7406 90.022L21.1924 86.0993L21.237 81.4092L21.7272 77.2113L21.3261 72.0292L21.621 65.4006L23.6366 60.8491Z" fill="#302722"/>
<path d="M40.1746 38.3872C43.9151 34.9813 42.4708 24.635 47.2112 22.8983C51.9517 21.1617 54.0344 21.0647 58.9851 21.2866C63.9358 21.5085 64.9325 21.8661 69.2687 24.0095C73.6049 26.153 77.811 27.4632 80.8103 31.1712C83.8096 34.8791 84.2018 38.839 86.2754 42.9093C87.889 46.0765 87.5716 51.1384 88.4438 55.6664C89.4621 60.9538 85.2232 68.7745 82.4699 72.9678C79.7166 77.1611 78.7703 81.4321 76.8179 82.7224L77.662 74.2818L77.24 69.2174L73.6921 58.4396L68.0694 51.1773L62.92 45.9962L56.3915 42.2598L40.1746 38.3872Z" fill="#302722"/>
<path d="M47.954 81.2151C47.3733 83.2331 47.1264 84.8639 46.4724 84.1382C46.0126 84.4034 46.4775 82.9753 47.0582 80.9573C47.6389 78.9394 47.9508 78.1366 48.3949 78.3711C48.8389 78.6056 48.5347 79.1972 47.954 81.2151Z" fill="#3A3027"/>
<path d="M47.7639 85.6732C46.8263 84.8655 46.0495 84.3609 46.4347 83.783C46.6382 83.5468 47.5632 84.01 48.5009 84.8177C49.4385 85.6253 50.1372 86.5605 49.8301 86.7078C49.2324 86.9946 48.7015 86.4809 47.7639 85.6732Z" fill="#3A3027"/>
<g filter="url(#filter0_f_225_219)">
<path d="M47.9579 94.9132C47.7341 95.5797 45.7967 95.5303 43.6306 94.803C41.4645 94.0756 39.89 92.9456 40.1138 92.2792C41.6789 91.906 44.2829 92.6712 45.8676 92.9509C46.9119 93.4789 48.1817 94.2467 47.9579 94.9132Z" fill="#FD978E"/>
</g>
<g filter="url(#filter1_f_225_219)">
<path d="M56.3297 94.0533C56.3543 94.7559 54.3717 94.8272 52.0881 94.9073C49.8046 94.9874 47.5149 94.9536 47.4903 94.251C47.4656 93.5483 49.5214 92.9677 50.5784 92.9735C51.6353 92.9794 56.305 93.3506 56.3297 94.0533Z" fill="#FD978E"/>
</g>
<g filter="url(#filter2_f_225_219)">
<path d="M39.5796 93.3168C39.5857 93.7387 41.9133 97.3204 43.7467 98.2993C44.7911 98.8569 45.9369 99.5376 48.1148 99.561C50.2928 99.5844 51.0746 99.0319 52.6473 98.49C53.6957 98.1288 55.7608 95.4915 56.3232 95.0758L48.1208 97.5067L39.5796 93.3168Z" fill="#FD978E"/>
</g>
<path d="M41.2566 94.2253C42.0236 92.4966 44.6059 94.4339 48.7361 94.563C52.8664 94.692 54.1042 93.7504 54.7617 95.5237C54.7391 96.2489 52.3998 98.0789 48.2696 97.9499C44.1393 97.8208 41.234 94.9506 41.2566 94.2253Z" fill="white"/>
<path d="M39.0588 92.4401C40.113 91.4026 42.6728 93.7392 47.9488 94.1003C53.2248 94.4614 55.283 93.0554 57.3841 94.1516C57.3375 94.8335 53.7434 95.47 48.4674 95.1089C43.1914 94.7478 39.0121 93.122 39.0588 92.4401Z" fill="#3A3027"/>
<path d="M39.185 93.0394C40.1834 90.1688 41.1106 97.1622 48.1358 97.4104C54.7167 97.6429 55.5716 92.1005 56.3888 95.0278C55.2708 96.1409 53.3971 98.2562 48.1324 98.0917C42.8678 97.9272 39.5802 93.9619 39.185 93.0394Z" fill="#3A3027"/>
<path d="M44.3217 62.7508C43.367 63.7036 40.8841 61.5764 36.0191 61.0379C31.1541 60.4994 29.1629 61.6021 28.4397 60.4636C28.4876 60.0304 31.2987 59.1923 36.1637 59.7308C41.0288 60.2693 44.3696 62.3177 44.3217 62.7508Z" fill="#3A3027"/>
<path d="M73.8954 66.6923C72.9425 67.6294 70.4566 65.5297 65.5915 64.9912C60.7265 64.4527 58.7375 65.5358 58.0126 64.4129C58.0598 63.9863 60.8691 63.1652 65.7341 63.7037C70.5991 64.2422 73.9427 66.2657 73.8954 66.6923Z" fill="#3A3027"/>
<path d="M73.4993 76.6362C71.3374 76.9399 70.1428 74.5704 65.1374 73.5574C60.132 72.5444 57.783 74.3798 57.2792 72.4292C57.4281 71.6936 60.5813 70.3245 65.5867 71.3375C70.592 72.3505 71.3374 74.4077 73.4993 76.6362Z" fill="#3A3027"/>
<ellipse cx="65.006" cy="71.0315" rx="0.422032" ry="1.2661" fill="#3A3027"/>
<ellipse cx="68.1743" cy="72.7398" rx="0.422032" ry="1.2661" transform="rotate(33.9476 68.1743 72.7398)" fill="#3A3027"/>
<ellipse cx="61.6283" cy="71.0319" rx="0.422032" ry="1.2661" transform="rotate(-24.4153 61.6283 71.0319)" fill="#3A3027"/>
<path d="M27.4524 70.5712C29.3052 71.3688 30.9476 69.548 35.6558 69.8652C40.364 70.1823 42.0103 72.3908 42.9347 70.775C42.9813 70.0831 40.5046 68.0942 35.7964 67.7771C31.0882 67.46 29.9224 69.1119 27.4524 70.5712Z" fill="#3A3027"/>
<ellipse cx="34.9525" cy="67.721" rx="0.422032" ry="1.2661" transform="rotate(-16.0283 34.9525 67.721)" fill="#3A3027"/>
<ellipse cx="38.4537" cy="68.5617" rx="0.422032" ry="1.2661" transform="rotate(22.9424 38.4537 68.5617)" fill="#3A3027"/>
<ellipse cx="31.7279" cy="68.5573" rx="0.422032" ry="1.2661" transform="rotate(-24.4153 31.7279 68.5573)" fill="#3A3027"/>
<path d="M20.9822 57.4935L22.5564 58.7857L22.7608 60.8087C22.7608 60.8087 20.847 63.6608 21.3696 66.0881C21.8921 68.5154 21.3269 70.8022 21.8697 73.4274C22.169 74.8748 22.1005 77.3078 21.9079 79.4162C21.7108 81.5743 21.7102 82.5814 21.9972 85.0962C22.2843 87.6109 24.3717 91.1223 24.3717 91.1223C26.045 93.1764 29.2273 95.401 25.5082 93.6768L24.7265 93.446L21.5297 90.696L20.0598 86.8351L19.2516 82.8692L19.0978 78.1454L19.483 73.9287L18.7903 68.6978L18.8421 62.0274L20.9822 57.4935Z" fill="#302722"/>
<path d="M84.2653 53.9859C83.8277 56.3129 82.2315 37.6011 57.4922 32.9492C32.753 28.2973 22.2111 44.9263 22.6487 42.5993C23.0862 40.2722 34.3375 19.8704 59.0768 24.5223C83.8161 29.1742 84.7029 51.6589 84.2653 53.9859Z" fill="#D4B8EF"/>
<path d="M25.1412 4.7339L34.7618 11.3639L45.0413 20.9014L42.1386 27.1215L36.3332 29.1949L33.0197 30.8576L29.2876 34.1749L22.2376 30.4391L23.4815 18.0005L25.1412 4.7339Z" fill="#B09BD8"/>
<path d="M84.5132 10.5089L85.4921 34.5611L77.0513 37.127L71.143 32.0289L65.2344 28.6517L64.3594 21.7236L84.5132 10.5089Z" fill="#B09BD8"/>
<circle cx="24.7215" cy="4.59624" r="2.11016" fill="#D4B8EF"/>
<circle cx="84.5574" cy="10.4485" r="2.11016" fill="#D4B8EF"/>
<path d="M62.9319 22.9135C62.778 25.7063 63.9491 28.0416 61.3891 27.9006C58.8291 27.7595 53.9288 25.2186 54.0827 22.4259C54.2366 19.6331 59.3864 17.6461 61.9464 17.7871C64.5064 17.9282 63.0858 20.1208 62.9319 22.9135Z" fill="#B07ECE"/>
<path d="M62.9319 22.9135C62.778 25.7063 63.9491 28.0416 61.3891 27.9006C58.8291 27.7595 53.9288 25.2186 54.0827 22.4259C54.2366 19.6331 59.3864 17.6461 61.9464 17.7871C64.5064 17.9282 63.0858 20.1208 62.9319 22.9135Z" fill="#B07ECE"/>
<path d="M45.2818 22.165C45.1279 24.9578 43.4411 27.1357 45.9619 27.2746C48.4828 27.4135 53.5557 25.4222 53.7096 22.6295C53.8635 19.8367 49.0401 17.3001 46.5193 17.1612C43.9984 17.0222 45.4357 19.3723 45.2818 22.165Z" fill="#B07ECE"/>
<path d="M45.2818 22.165C45.1279 24.9578 43.4411 27.1357 45.9619 27.2746C48.4828 27.4135 53.5557 25.4222 53.7096 22.6295C53.8635 19.8367 49.0401 17.3001 46.5193 17.1612C43.9984 17.0222 45.4357 19.3723 45.2818 22.165Z" fill="#B07ECE"/>
<path d="M56.9223 22.6512C56.8267 24.3858 55.9154 24.8009 53.6604 24.6767C51.4055 24.5524 50.5452 24.0397 50.6408 22.3051C50.7364 20.5705 51.6651 19.8413 53.92 19.9656C56.175 20.0898 57.0179 20.9166 56.9223 22.6512Z" fill="#090909"/>
<defs>
<filter id="filter0_f_225_219" x="39.0918" y="91.1787" width="9.89258" height="5.20386" filterUnits="userSpaceOnUse" color-interpolation-filters="sRGB">
<feFlood flood-opacity="0" result="BackgroundImageFix"/>
<feBlend mode="normal" in="SourceGraphic" in2="BackgroundImageFix" result="shape"/>
<feGaussianBlur stdDeviation="0.5" result="effect1_foregroundBlur_225_219"/>
</filter>
<filter id="filter1_f_225_219" x="46.4902" y="91.9734" width="10.8398" height="3.96436" filterUnits="userSpaceOnUse" color-interpolation-filters="sRGB">
<feFlood flood-opacity="0" result="BackgroundImageFix"/>
<feBlend mode="normal" in="SourceGraphic" in2="BackgroundImageFix" result="shape"/>
<feGaussianBlur stdDeviation="0.5" result="effect1_foregroundBlur_225_219"/>
</filter>
<filter id="filter2_f_225_219" x="38.5801" y="92.3169" width="18.7422" height="8.24487" filterUnits="userSpaceOnUse" color-interpolation-filters="sRGB">
<feFlood flood-opacity="0" result="BackgroundImageFix"/>
<feBlend mode="normal" in="SourceGraphic" in2="BackgroundImageFix" result="shape"/>
<feGaussianBlur stdDeviation="0.5" result="effect1_foregroundBlur_225_219"/>
</filter>
</defs>
</svg>
