<svg width="21" height="20" viewBox="0 0 21 20" fill="none" xmlns="http://www.w3.org/2000/svg">
<path d="M13.5863 7.71499L12.7668 7.57442C12.747 7.6972 12.7534 7.82295 12.7855 7.94293C12.8176 8.06292 12.8746 8.17425 12.9526 8.26919C13.0305 8.36413 13.1276 8.44041 13.2371 8.49272C13.3465 8.54503 13.4657 8.57211 13.5863 8.57208V7.71499ZM1.40478 7.71499V6.85789C1.1845 6.85789 0.973243 6.94819 0.817484 7.10893C0.661724 7.26967 0.574219 7.48767 0.574219 7.71499H1.40478ZM3.6196 20H16.1998V18.2858H3.6196V20ZM17.5287 6.85789H13.5863V8.57208H17.5287V6.85789ZM14.4058 7.85555L15.2984 2.33015L13.6594 2.04788L12.7668 7.57442L14.4058 7.85555ZM13.387 0.00114271H13.15V1.71533H13.3859L13.387 0.00114271ZM9.69375 1.90961L6.90861 6.22136L8.29066 7.17216L11.0758 2.86041L9.69375 1.90961ZM5.7569 6.85789H1.40478V8.57208H5.7569V6.85789ZM0.574219 7.71499V16.8573H2.23534V7.71499H0.574219ZM19.1865 17.4744L20.5154 10.6177L18.8875 10.2806L17.5586 17.1373L19.1865 17.4733V17.4744ZM6.90861 6.22136C6.78226 6.4171 6.61102 6.57648 6.4101 6.68752C6.20919 6.79856 5.98482 6.85669 5.7569 6.85675V8.57094C6.77572 8.57094 7.72588 8.0464 8.29066 7.17216L6.90861 6.22136ZM15.2984 2.33015C15.3445 2.04373 15.3297 1.74924 15.2549 1.46934C15.18 1.18944 15.0471 0.929699 14.8652 0.708177C14.6833 0.486655 14.4569 0.308661 14.2016 0.186564C13.9463 0.0644661 13.6683 0.00119341 13.387 0.00114271L13.3859 1.71533C13.426 1.71543 13.4667 1.72454 13.5031 1.74202C13.5395 1.75951 13.5718 1.78495 13.5977 1.81658C13.6236 1.84822 13.6426 1.88529 13.6532 1.92523C13.6639 1.96517 13.666 2.00702 13.6594 2.04788L15.2984 2.33015ZM17.5287 8.57094C18.4035 8.57094 19.0569 9.39604 18.8864 10.2794L20.5154 10.6165C20.6035 10.1607 20.5925 9.68916 20.4833 9.2382C20.374 8.78723 20.1691 8.3669 19.8834 8.00749C19.5978 7.64808 19.2384 7.35855 18.8312 7.15976C18.424 6.96097 17.9791 6.85787 17.5287 6.85789V8.57208V8.57094ZM16.1998 20C16.9038 20.0001 17.5861 19.7474 18.1306 19.287C18.6751 18.8265 19.0482 18.1856 19.1865 17.4733L17.5586 17.1362C17.4958 17.4603 17.3261 17.7519 17.0783 17.9613C16.8305 18.1707 16.5201 18.2861 16.1998 18.2858V20ZM13.15 0.00114271C12.4663 0.00119396 11.7933 0.17427 11.1905 0.507194C10.5878 0.840118 10.0741 1.32145 9.69486 1.90846L11.0758 2.86041C11.3034 2.50804 11.6119 2.218 11.9737 2.01823C12.3355 1.81847 12.7396 1.71517 13.15 1.71533V0.00114271ZM3.6196 18.2858C2.85549 18.2858 2.23534 17.6458 2.23534 16.8573H0.574219C0.574219 17.6908 0.89507 18.4902 1.46619 19.0795C2.03731 19.6689 2.81191 20 3.6196 20V18.2858Z" fill="#999999"/>
<path d="M5.83398 7.71484V19.1428" stroke="#999999" stroke-width="1.5"/>
</svg>
