<svg width="100" height="112" viewBox="0 0 100 112" fill="none" xmlns="http://www.w3.org/2000/svg">
<path d="M24.9575 93.5377C30.4569 100.905 39.882 100.223 47.957 103.65C51.7298 100.834 44.1191 90.7076 38.6197 83.3399C33.1203 75.9722 25.6037 72.2824 21.831 75.0984C18.0583 77.9144 19.4581 86.17 24.9575 93.5377Z" fill="#FFDDCD"/>
<path d="M66.4639 92.3694C61.2348 99.0583 53.2917 100.199 46.1561 104.26C42.6201 102.058 49.0297 91.8328 53.659 84.3973C58.2883 76.9618 64.9075 72.7187 68.4435 74.9202C71.9794 77.1216 71.0931 84.9339 66.4639 92.3694Z" fill="#FFDDCD"/>
<path d="M17.5 65.874C17.2299 70.5103 19.9196 75.0389 15.2174 74.7649C10.5153 74.4909 6.92237 70.5103 7.19251 65.874C7.46265 61.2377 11.4935 57.7014 16.1957 57.9753C20.8979 58.2493 17.7701 61.2377 17.5 65.874Z" fill="#FFDDCD"/>
<path d="M74.4012 68.4594C74.1738 72.3636 70.0709 75.3003 73.9894 75.5286C77.9078 75.757 81.2688 72.777 81.4963 68.8728C81.7238 64.9685 78.7316 61.6184 74.8131 61.3901C70.8947 61.1618 74.6287 64.5551 74.4012 68.4594Z" fill="#FFDDCD"/>
<path d="M79.999 42.9363C79.999 56.1911 65.4483 66.9363 47.499 66.9363C29.5498 66.9363 13.9971 73.4363 14.999 42.9363C14.999 29.6814 29.5498 18.9363 47.499 18.9363C65.4483 18.9363 79.999 29.6814 79.999 42.9363Z" fill="#FFDDCD"/>
<path d="M65.8941 91.7132C61.9985 98.9015 54.8768 100.191 48.9095 104.621C45.9738 103.03 51.3672 93.1399 55.2628 85.9517C59.1584 78.7635 64.6963 74.226 67.632 75.817C70.5678 77.408 69.7897 84.525 65.8941 91.7132Z" fill="#FFDDCD"/>
<path d="M76.1111 72.1241C73.5789 88.7134 54.7317 106.413 45.0851 106.718C33.6395 107.08 15.4341 85.0505 16.0004 68.312C16.5666 51.5735 30.5169 29.2945 47.1322 29.7363C63.7476 30.1782 79.32 51.1022 76.1111 72.1241Z" fill="#FFDDCD"/>
<path d="M33.6374 29.041C30.4672 27.8299 29.135 20.5338 25.7414 20.8368C23.9989 19.9412 22.2842 19.0702 19.2325 20.8368C16.1808 22.6034 12.7012 24.9996 10.4998 27.9355C8.29849 30.8714 9.48332 33.4495 8.49902 37.0656C7.51473 40.6817 7.10234 41.2416 7.49908 44.9355C7.82129 47.9355 9.34829 51.3007 10.4989 54.2165C12.2105 57.3728 11.9989 58.9379 13.4989 60.9942C15.5314 63.7807 14.8104 69.4826 16.8164 73.0434L16.8045 60.9942L17.4625 54.2165L19.2325 47.2158L21.2093 41.8517L24.4008 37.0687L33.6374 29.041Z" fill="#3A3027"/>
<path d="M41.6129 33.583C42.898 33.4957 44.2752 24.6402 45.3854 25.3563C47.2625 25.9535 48.5388 29.4987 48.7394 30.8116C48.94 32.1245 49.2279 34.9498 49.4934 36.8008C49.7589 38.6519 49.9446 39.2473 49.6811 41.2408C49.4175 43.2343 49.533 43.5468 48.7842 45.3506C48.0355 47.1545 47.6013 49.3499 46.4921 50.6635C45.3829 51.9772 44.8882 52.8101 44.8882 52.8101C44.6249 53.0459 44.5102 52.7002 43.8452 53.7991L44.2826 51.9636L44.6211 49.15L44.0816 45.5361L42.3868 42.2761L41.8543 39.495L41.6129 33.583Z" fill="#3A3027"/>
<path d="M53.053 25.6382C51.1808 26.2181 48.3363 12.5946 47.1258 14.1935C44.7636 16.0458 41.1049 23.7501 41.4946 25.6808C41.8843 27.6115 42.9273 31.6879 43.5013 34.4005C44.0753 37.1131 44.1173 38.0404 45.5168 40.6621C46.9164 43.2838 46.9128 43.7803 48.9048 45.8743C50.8968 47.9683 52.6428 50.777 54.8954 51.9944C57.1479 53.2118 58.2796 54.0973 58.2796 54.0973C58.7753 54.2808 58.7606 53.7387 60.2712 54.9004L58.7056 52.5926L56.5466 48.9061L54.9334 43.8568L54.4255 38.65L54.0656 34.5863L53.053 25.6382Z" fill="#3A3027"/>
<path d="M31.1558 27.6578C30.1718 25.9337 22.7712 30.9085 22.5703 28.9324C21.7273 25.9684 22.8881 20.5873 23.8226 19.5027C24.757 18.418 26.8699 16.2828 28.1996 14.7775C29.5293 13.2722 29.8857 12.6492 31.708 11.7882C33.5302 10.9273 33.7045 10.5754 35.7157 10.5022C37.7268 10.429 39.8358 9.68006 41.7009 10.4069C43.5659 11.1337 44.6004 11.3061 44.6004 11.3061C44.9807 11.5254 44.7786 11.8966 46.1521 12.141L44.336 12.6643L41.6523 13.7408L38.8309 16.1598L36.6561 19.4666L34.982 22.0732L31.1558 27.6578Z" fill="#3A3027"/>
<path d="M54.0426 17.0739C53.9692 15.9673 58.7708 16.0755 58.2712 15.0864C57.7645 13.4397 55.6384 11.2608 54.8959 11.0327C54.1534 10.8045 52.5691 10.4377 51.5239 10.1309C50.4787 9.82419 50.133 9.63884 49.0593 9.78324C47.9857 9.92764 47.8025 9.81479 46.8792 10.3863C45.9559 10.9578 44.7871 11.2412 44.1681 12.1446C43.549 13.0479 43.1368 13.4406 43.1368 13.4406C43.0317 13.6582 43.2331 13.7718 42.6904 14.3004L43.6606 13.9992L45.1847 13.6965L47.1712 13.9832L49.1328 14.8819L50.661 15.6024L54.0426 17.0739Z" fill="#3A3027"/>
<path d="M38.499 27.9324C37.0749 28.2525 33.2239 27.0631 32.0505 27.9324C30.0223 28.9427 26.5656 35.7414 26.4386 36.7848C26.3117 37.8281 26.197 40.0303 26.037 41.4962C25.877 42.962 25.7149 43.4636 26.1489 44.8774C26.5829 46.2912 26.4779 46.5599 27.4336 47.6862C28.3893 48.8125 29.0261 50.3263 30.3443 50.9774C31.6625 51.6285 32.2682 52.1038 32.2682 52.1038C32.5756 52.2014 32.6774 51.9081 33.49 52.5315L32.8755 51.2882L32.1322 49.3007L32.0505 46.574L32.7712 43.7584L33.3593 41.5608L38.499 27.9324Z" fill="#3A3027"/>
<path d="M44 30.4324C42.5759 30.7525 38.6735 27.5631 37.5 28.4324C35.4718 29.4427 32.5715 36.8078 32.4445 37.8512C32.3175 38.8945 32.2028 41.0967 32.0429 42.5626C31.8829 44.0284 31.7207 44.53 32.1547 45.9438C32.5888 47.3577 32.4838 47.6263 33.4395 48.7526C34.3952 49.8789 35.032 51.3927 36.3502 52.0438C37.6683 52.6949 38.2741 53.1702 38.2741 53.1702C38.5815 53.2678 38.6832 52.9745 39.4959 53.5979L38.8814 52.3546L38.1381 50.3671L38.0563 47.6404L38.7771 44.8248L39.3652 42.6272L44 30.4324Z" fill="#3A3027"/>
<path d="M66.195 28.9338C64.0438 30.9286 43.2539 29.8036 41.9777 32.4344C39.3685 36.179 51.942 35.5428 52.582 37.375C53.2219 39.2072 55.1609 43.1761 55.7625 45.4711C56.0721 47.0107 56.4603 48.6115 58.3546 50.4674C60.2489 52.3233 60.6599 53.27 63.2027 54.1176C65.7454 54.9651 68.0656 56.774 70.8332 56.4721C73.6008 56.1701 75.0171 56.3182 75.0171 56.3182C75.6181 56.1593 75.5503 55.5758 77.4385 55.7516L75.378 54.3603L72.4893 51.8892L70.1161 47.5287L69.0302 42.193L68.2257 38.0021L66.195 28.9338Z" fill="#3A3027"/>
<path d="M25.999 28.4324C29.4823 24.8457 34.4055 15.8818 39.0316 13.9853C43.6576 12.0888 45.7446 11.9396 50.7428 12.0493C55.7411 12.159 56.7729 12.5024 61.3106 14.6C65.8483 16.6976 70.1867 17.9427 73.5078 21.6787C76.829 25.4148 77.5482 29.4718 79.968 33.602C81.8508 36.8159 81.9468 42.0214 83.1955 46.6505C84.6535 52.0556 81.031 60.1878 78.6053 64.5596C76.1796 68.9314 76.8389 72.7152 74.9808 74.0868L74.612 65.1987L74.0115 60.2871L68.584 49.8502L62.3325 42.5268L56.7276 37.3294L49.854 33.6483L25.999 28.4324Z" fill="#3A3027"/>
<path d="M44.0532 75.4838C43.491 77.9049 43.2996 79.8477 42.4819 79.0302C41.9547 79.372 42.4163 77.6553 42.9785 75.2343C43.5407 72.8132 43.8599 71.8451 44.3993 72.0949C44.9386 72.3447 44.6154 73.0628 44.0532 75.4838Z" fill="#3A3027"/>
<path d="M29.4044 53.8364C23.5724 54.3548 19.0621 55.1178 20.3728 53.5965C20.7949 53.1116 22.0854 51.941 27.9174 51.4226C33.7494 50.9043 37.491 51.67 37.2797 52.5217C37.0683 53.3733 35.2364 53.3181 29.4044 53.8364Z" fill="#3A3027"/>
<path d="M62.0589 55.2837C56.3262 54.0933 51.7879 53.5193 53.4825 52.442C54.0269 52.0999 56.4661 51.5418 62.1987 52.7322C67.9314 53.9226 70.4264 55.5484 69.9779 56.3027C69.5292 57.0567 67.7915 56.4741 62.0589 55.2837Z" fill="#3A3027"/>
<path d="M44.1036 80.7631C42.9456 79.8661 41.9963 79.3175 42.416 78.6107C42.642 78.3189 43.764 78.8095 44.9221 79.7064C46.0801 80.6034 46.9635 81.6658 46.6096 81.8589C45.9208 82.2346 45.2616 81.6601 44.1036 80.7631Z" fill="#3A3027"/>
<path d="M37.5392 64.9274C36.6787 66.7098 33.8027 63.6513 28.6701 63.7223C23.5376 63.7933 21.6202 66.033 20.7106 64.2751C20.7004 63.5419 23.507 61.5807 28.6395 61.5096C33.772 61.4386 37.5291 64.1942 37.5392 64.9274Z" fill="#3A3027"/>
<path d="M53.4098 64.8549C54.0494 66.8881 57.493 64.0085 62.8374 64.8034C68.1818 65.5982 69.8577 68.2702 71.0614 66.511C71.1782 65.7256 68.5343 63.228 63.1899 62.4331C57.8455 61.6383 53.5266 64.0694 53.4098 64.8549Z" fill="#3A3027"/>
<g filter="url(#filter0_f_240_3)">
<path d="M45.6034 91.6375C45.425 92.302 43.5297 92.3708 41.3701 91.791C39.2105 91.2113 37.6044 90.2027 37.7828 89.5382C39.289 89.0793 41.8786 89.6695 43.4433 89.847C44.4952 90.2997 45.7818 90.973 45.6034 91.6375Z" fill="#FD978E"/>
</g>
<g filter="url(#filter1_f_240_3)">
<path d="M53.7287 90.2942C53.7952 90.979 51.8629 91.1683 49.6373 91.3844C47.4117 91.6005 45.1733 91.7056 45.1068 91.0208C45.0403 90.336 47.0132 89.6449 48.046 89.5867C49.0787 89.5286 53.6622 89.6094 53.7287 90.2942Z" fill="#FD978E"/>
</g>
<g filter="url(#filter2_f_240_3)">
<path d="M37.3233 90.5854C37.3548 90.9971 39.8445 94.355 41.6943 95.2005C42.7481 95.6821 43.9083 96.2778 46.037 96.1692C48.1657 96.0605 48.8959 95.4737 50.3993 94.8495C51.4016 94.4334 53.2594 91.7329 53.7836 91.2928L45.9188 94.1623L37.3233 90.5854Z" fill="#FD978E"/>
</g>
<path d="M39.0156 91.3715C39.6604 89.6367 42.2995 91.3731 46.3415 91.2498C50.3834 91.1265 51.5356 90.1321 52.2849 91.8244C52.3065 92.5342 50.1321 94.4628 46.0902 94.5861C42.0482 94.7093 39.0372 92.0813 39.0156 91.3715Z" fill="white"/>
<path d="M36.7617 89.76C37.7287 88.6829 40.37 90.8107 45.5451 90.8449C50.7201 90.8791 52.6456 89.3816 54.764 90.3255C54.7596 90.9944 51.2875 91.833 46.1125 91.7988C40.9374 91.7645 36.7572 90.4288 36.7617 89.76Z" fill="#3A3027"/>
<path d="M36.9226 90.3405C37.7245 87.4765 39.0523 94.2512 45.929 94.0696C52.3709 93.8995 52.8713 88.4344 53.8463 91.2443C52.8214 92.399 51.119 94.5781 45.9669 94.7352C40.8148 94.8924 37.3643 91.2178 36.9226 90.3405Z" fill="#3A3027"/>
<path d="M17.9056 26.8026C19.7302 27.8076 36.3125 21.2642 37.4696 23.0137C39.751 25.2885 29.654 28.1966 29.2362 29.8302C28.8183 31.4638 27.7202 34.8559 27.1072 37.1443C26.4941 39.4326 26.4358 40.2548 25.0151 42.2479C23.5944 44.241 23.5887 44.688 21.597 46.0539C20.3066 47.4582 19.3066 49.4582 18.8065 50.4582C18.3065 51.4582 17.8644 56.013 17.8644 56.013C17.3644 57.0077 16.9048 60.5691 15.8627 61.5214L14.3628 52.0222L14.0492 46.8009L15.7243 42.6822L16.3188 38.1363L16.7469 34.5789L17.9056 26.8026Z" fill="#3A3027"/>
<path d="M32.261 65.4307C32.2671 67.3637 31.0968 68.9344 29.647 68.939C28.1973 68.9435 27.0171 67.3802 27.011 65.4472C27.0049 63.5143 28.1752 61.9436 29.625 61.939C31.0747 61.9344 32.2549 63.4977 32.261 65.4307Z" fill="#3A3027"/>
<path d="M63.6808 67.1221C63.4146 69.0367 62.0347 70.4269 60.5988 70.2272C59.1628 70.0275 58.2146 68.3136 58.4808 66.399C58.7471 64.4844 60.1269 63.0942 61.5629 63.2939C62.9988 63.4936 63.947 65.2075 63.6808 67.1221Z" fill="#3A3027"/>
<path fill-rule="evenodd" clip-rule="evenodd" d="M15.8577 17.8605C32.693 15.6897 35.6301 18.8456 44.8828 19.2005C54.1423 19.1795 57.2002 15.6369 73.9374 18.908C74.9828 19.1149 75.0858 19.1613 75.2452 20.2034C75.3111 20.6649 75.3255 22.61 75.3321 23.0703C75.3514 23.9219 75.1811 24.0326 74.327 24.4676C73.5828 24.8451 73.2394 24.9527 73.2114 26.5061C73.0267 36.7468 68.3193 39.8291 62.0666 39.9588C55.4575 40.0969 50.1527 36.2451 48.0205 30.4413C45.0012 22.2412 44.5065 22.2273 41.1934 30.3182C38.8583 36.0414 33.5564 39.7068 26.9615 39.3306C20.7177 38.9705 16.1311 35.3544 16.3091 25.4848C16.3371 23.9314 15.9978 23.8114 15.2677 23.4073C14.43 22.9369 14.2589 22.82 14.3138 21.9698C14.3419 21.5101 14.4264 19.5667 14.504 19.1079C14.7008 18.0722 14.7967 18.5193 15.8577 17.8605ZM70.4593 26.2635C70.6129 22.4112 70.0849 21.5059 67.65 20.9622C65.368 20.4509 63.0271 20.181 60.7102 20.2283C57.923 20.2869 54.7262 20.833 52.5718 21.7493C49.8189 22.922 49.4999 23.8713 50.0625 25.6036C51.6516 30.5118 53.55 36.9299 62.0401 36.7663C68.3173 36.647 70.2236 32.1978 70.4593 26.2635ZM19.0682 25.3366C19.0947 31.2756 20.8344 35.7955 27.1033 36.1362C35.582 36.6009 37.7891 30.0193 39.5542 25.1716C40.179 23.4558 39.7923 23.2162 37.0835 21.945C34.9636 20.9516 31.8169 19.8111 29.0287 19.652C26.715 19.5211 24.366 19.7064 22.067 20.1351C19.614 20.5956 19.0536 21.4812 19.0682 25.3366Z" fill="#A60F0F"/>
<ellipse cx="25.1073" cy="13.5023" rx="2.39939" ry="5.97109" transform="rotate(-32.1496 25.1073 13.5023)" fill="#55A959"/>
<ellipse cx="64.6551" cy="15.3354" rx="2.39939" ry="5.97109" transform="rotate(32.0411 64.6551 15.3354)" fill="#55A959"/>
<defs>
<filter id="filter0_f_240_3" x="36.7695" y="88.3672" width="9.84961" height="4.81738" filterUnits="userSpaceOnUse" color-interpolation-filters="sRGB">
<feFlood flood-opacity="0" result="BackgroundImageFix"/>
<feBlend mode="normal" in="SourceGraphic" in2="BackgroundImageFix" result="shape"/>
<feGaussianBlur stdDeviation="0.5" result="effect1_foregroundBlur_240_3"/>
</filter>
<filter id="filter1_f_240_3" x="44.1055" y="88.5713" width="10.625" height="3.97632" filterUnits="userSpaceOnUse" color-interpolation-filters="sRGB">
<feFlood flood-opacity="0" result="BackgroundImageFix"/>
<feBlend mode="normal" in="SourceGraphic" in2="BackgroundImageFix" result="shape"/>
<feGaussianBlur stdDeviation="0.5" result="effect1_foregroundBlur_240_3"/>
</filter>
<filter id="filter2_f_240_3" x="36.3242" y="89.5854" width="18.459" height="7.59668" filterUnits="userSpaceOnUse" color-interpolation-filters="sRGB">
<feFlood flood-opacity="0" result="BackgroundImageFix"/>
<feBlend mode="normal" in="SourceGraphic" in2="BackgroundImageFix" result="shape"/>
<feGaussianBlur stdDeviation="0.5" result="effect1_foregroundBlur_240_3"/>
</filter>
</defs>
</svg>
