<svg width="19" height="19" viewBox="0 0 19 19" fill="none" xmlns="http://www.w3.org/2000/svg">
<path d="M15.4484 14.3597L14.695 12.5176L13.5696 12.9783L14.3243 14.8223L14.3256 14.8243C14.3515 14.8848 14.3651 14.95 14.3656 15.0158C14.3661 15.0817 14.3535 15.147 14.3284 15.2079C14.3033 15.2688 14.2664 15.3242 14.2197 15.3706C14.173 15.4171 14.1175 15.4538 14.0565 15.4786L10.8369 16.799L10.835 16.7996C10.7745 16.8255 10.7094 16.839 10.6436 16.8394C10.5778 16.8399 10.5126 16.8272 10.4517 16.8021C10.3909 16.7771 10.3356 16.7402 10.2892 16.6935C10.2428 16.6469 10.2061 16.5915 10.1813 16.5305L9.42535 14.6832L8.29988 15.1439L9.05457 16.986C9.13943 17.1956 9.26502 17.3864 9.42408 17.5472C9.58314 17.708 9.77251 17.8357 9.98123 17.9228C10.1899 18.01 10.4139 18.0549 10.6401 18.0549C10.8662 18.055 11.0902 18.0102 11.2989 17.9231H11.3003L14.5119 16.6054C14.7216 16.5205 14.9124 16.3949 15.0732 16.2358C15.234 16.0768 15.3616 15.8874 15.4488 15.6787C15.5359 15.47 15.5808 15.2461 15.5809 15.0199C15.5809 14.7937 15.5361 14.5697 15.4491 14.361V14.3597H15.4484ZM4.25016 14.422L5.37104 16.5739C5.77791 17.0004 5.75822 17.6764 5.3251 18.0767C4.89853 18.477 4.2226 18.4573 3.82229 18.0307L0.600098 14.6117C0.199785 14.1851 0.219473 13.5092 0.646035 13.1089C1.0726 12.7085 1.74853 12.7282 2.14885 13.1548L4.25016 14.422Z" fill="#FFB02E"/>
<path d="M18.1806 8.8955L10.6009 0.856434C9.7675 -0.0295039 8.30406 0.200184 7.78562 1.30268L2.14844 13.1546L5.41 16.613L17.5769 11.6846C18.6991 11.2317 19.0141 9.78143 18.1806 8.8955Z" fill="#F9C23C"/>
</svg>
