<svg width="50" height="62" viewBox="0 0 50 62" fill="none" xmlns="http://www.w3.org/2000/svg">
<path d="M9.375 31.7262C9.375 31.1105 9.62193 30.52 10.0615 30.0847C10.501 29.6493 11.0971 29.4048 11.7188 29.4048C12.3404 29.4048 12.9365 29.6493 13.376 30.0847C13.8156 30.52 14.0625 31.1105 14.0625 31.7262C14.0625 32.3419 13.8156 32.9323 13.376 33.3677C12.9365 33.803 12.3404 34.0476 11.7188 34.0476C11.0971 34.0476 10.501 33.803 10.0615 33.3677C9.62193 32.9323 9.375 32.3419 9.375 31.7262ZM11.7188 38.6905C11.0971 38.6905 10.501 38.9351 10.0615 39.3704C9.62193 39.8058 9.375 40.3962 9.375 41.0119C9.375 41.6276 9.62193 42.2181 10.0615 42.6534C10.501 43.0888 11.0971 43.3333 11.7188 43.3333C12.3404 43.3333 12.9365 43.0888 13.376 42.6534C13.8156 42.2181 14.0625 41.6276 14.0625 41.0119C14.0625 40.3962 13.8156 39.8058 13.376 39.3704C12.9365 38.9351 12.3404 38.6905 11.7188 38.6905ZM9.375 50.2976C9.375 49.6819 9.62193 49.0915 10.0615 48.6561C10.501 48.2208 11.0971 47.9762 11.7188 47.9762C12.3404 47.9762 12.9365 48.2208 13.376 48.6561C13.8156 49.0915 14.0625 49.6819 14.0625 50.2976C14.0625 50.9133 13.8156 51.5038 13.376 51.9391C12.9365 52.3745 12.3404 52.619 11.7188 52.619C11.0971 52.619 10.501 52.3745 10.0615 51.9391C9.62193 51.5038 9.375 50.9133 9.375 50.2976ZM21.0938 29.4048C20.4721 29.4048 19.876 29.6493 19.4365 30.0847C18.9969 30.52 18.75 31.1105 18.75 31.7262C18.75 32.3419 18.9969 32.9323 19.4365 33.3677C19.876 33.803 20.4721 34.0476 21.0938 34.0476H38.2812C38.9029 34.0476 39.499 33.803 39.9385 33.3677C40.3781 32.9323 40.625 32.3419 40.625 31.7262C40.625 31.1105 40.3781 30.52 39.9385 30.0847C39.499 29.6493 38.9029 29.4048 38.2812 29.4048H21.0938ZM18.75 41.0119C18.75 40.3962 18.9969 39.8058 19.4365 39.3704C19.876 38.9351 20.4721 38.6905 21.0938 38.6905H38.2812C38.9029 38.6905 39.499 38.9351 39.9385 39.3704C40.3781 39.8058 40.625 40.3962 40.625 41.0119C40.625 41.6276 40.3781 42.2181 39.9385 42.6534C39.499 43.0888 38.9029 43.3333 38.2812 43.3333H21.0938C20.4721 43.3333 19.876 43.0888 19.4365 42.6534C18.9969 42.2181 18.75 41.6276 18.75 41.0119ZM21.0938 47.9762C20.4721 47.9762 19.876 48.2208 19.4365 48.6561C18.9969 49.0915 18.75 49.6819 18.75 50.2976C18.75 50.9133 18.9969 51.5038 19.4365 51.9391C19.876 52.3745 20.4721 52.619 21.0938 52.619H38.2812C38.9029 52.619 39.499 52.3745 39.9385 51.9391C40.3781 51.5038 40.625 50.9133 40.625 50.2976C40.625 49.6819 40.3781 49.0915 39.9385 48.6561C39.499 48.2208 38.9029 47.9762 38.2812 47.9762H21.0938ZM48.1687 19.8529L29.9531 1.81381C29.9048 1.76934 29.8537 1.72798 29.8 1.69C29.7613 1.66045 29.7238 1.62948 29.6875 1.59714C29.4725 1.39617 29.2438 1.21002 29.0031 1.04C28.9231 0.988873 28.8396 0.943365 28.7531 0.90381L28.6031 0.829524L28.4469 0.739762C28.2781 0.64381 28.1063 0.544762 27.9281 0.470476C27.3058 0.224291 26.6472 0.0800256 25.9781 0.0433331C25.9163 0.0393475 25.8548 0.0321152 25.7937 0.0216666C25.7089 0.00869176 25.6233 0.00145289 25.5375 0H6.25C4.5924 0 3.00268 0.652209 1.83058 1.81315C0.65848 2.97409 0 4.54866 0 6.19048V55.7143C0 57.3561 0.65848 58.9307 1.83058 60.0916C3.00268 61.2526 4.5924 61.9048 6.25 61.9048H43.75C45.4076 61.9048 46.9973 61.2526 48.1694 60.0916C49.3415 58.9307 50 57.3561 50 55.7143V24.2295C49.9996 22.5878 49.3409 21.0135 48.1687 19.8529ZM45.3125 55.7143C45.3125 56.1247 45.1479 56.5184 44.8549 56.8086C44.5618 57.0989 44.1644 57.2619 43.75 57.2619H6.25C5.8356 57.2619 5.43817 57.0989 5.14515 56.8086C4.85212 56.5184 4.6875 56.1247 4.6875 55.7143V6.19048C4.6875 5.78002 4.85212 5.38638 5.14515 5.09614C5.43817 4.80591 5.8356 4.64286 6.25 4.64286H25V18.5714C25 20.2132 25.6585 21.7878 26.8306 22.9488C28.0027 24.1097 29.5924 24.7619 31.25 24.7619H45.3125V55.7143ZM29.6875 8.11262L41.8063 20.119H31.25C30.8356 20.119 30.4382 19.956 30.1451 19.6658C29.8521 19.3755 29.6875 18.9819 29.6875 18.5714V8.11262Z" fill="#333333"/>
</svg>
